<svg version="1" xmlns="http://www.w3.org/2000/svg" width="682.667" height="682.667" viewBox="0 0 512.000000 512.000000"><path d="M0 256v256h512V0H0v256zm218.2-123.6c28.6 5.1 42.7 28.2 37.4 61.1-.9 5.5-1.9 10.8-2.2 11.7-.5 1.6-2 1.8-13.8 1.8h-13.3l-.6-12.3c-1-19.2-4-27.9-11-32.5-3.4-2.3-5.1-2.7-11.1-2.7-8.8 0-13 2.2-16.4 8.5-2.1 4-2.3 5.5-2 13.5.3 8.3.7 9.6 4.3 16.2 2.4 4.3 12.5 17.4 24.5 31.9 24.8 29.9 30.9 38.2 36.5 49.9 5.9 12.2 7.7 19.8 7.7 32-.1 17-4.9 29.4-15.2 38.8-10.6 9.8-22 13.7-40 13.7-26.2 0-42.7-9.6-49.4-28.8-3.7-10.5-3.9-29.1-.5-42.9l1.1-4.3h26.5l.6 13.2c1.3 27.3 7 36.3 22.7 36.2 9.3-.1 15.2-3.7 18.1-10.9 1.7-4.2 1.4-18.2-.5-24.6-2.6-9-8.1-16.9-30.6-43.8-23.5-28.1-27.3-33.3-32.5-44.3-5-10.6-6.8-18.7-6.8-30.3-.1-21.3 9.2-37.9 25.9-46.3 5.1-2.6 8.1-3.4 18.9-5.6 4.4-.8 14.4-.5 21.7.8zM322 233.5V334l23.8.2 23.7.3.3 13.7.3 13.8H287V133h35v100.5z"/></svg>